<svg xmlns="http://www.w3.org/2000/svg" width="132" height="132" viewBox="0 0 98.88 99"><defs><clipPath id="a"><path d="M1 24h97.76v48H1Zm0 0"/></clipPath><clipPath id="c"><path d="M.2.99h97.56v46.5H.2Zm0 0"/></clipPath><clipPath id="e"><path d="M.4 4h30.2v40H.4Zm0 0"/></clipPath><clipPath id="f"><path d="M5 9.48h21.53v24.77H5Zm0 0"/></clipPath><clipPath id="h"><path d="M1 .48h20.53v24.77H1Zm0 0"/></clipPath><clipPath id="i"><path d="M14 2h7.53v9H14Zm0 0"/></clipPath><clipPath id="g"><path d="M0 0h22v26H0z"/></clipPath><clipPath id="j"><path d="M29 26h68.76v21.5H29Zm0 0"/></clipPath><clipPath id="k"><path d="M0 0h69v22H0z"/></clipPath><clipPath id="l"><path d="M34 1h63.76v31H34Zm0 0"/></clipPath><clipPath id="n"><path d="M.48 3H4v6H.48Zm0 0"/></clipPath><clipPath id="o"><path d="M.48 12H6v7H.48Zm0 0"/></clipPath><clipPath id="p"><path d="M.48 24H5v6H.48Zm0 0"/></clipPath><clipPath id="m"><path d="M0 0h64v31H0z"/></clipPath><clipPath id="d"><path d="M0 0h98v48H0z"/></clipPath><clipPath id="b"><path d="M0 0h98v48H0z"/></clipPath></defs><g clip-path="url(#a)"><g clip-path="url(#b)" transform="translate(1 24)"><g clip-path="url(#c)"><g clip-path="url(#d)"><g clip-path="url(#e)"><path fill="#ff3131" d="M28.17 8.58v19.2c0 4.66-3.12 8.9-7.92 10.83l-.1.04L15.5 41l-4.65-2.36-.1-.03c-4.81-1.93-7.92-6.18-7.92-10.84V8.57A38 38 0 0 1 15.5 6.43c4.37 0 8.63.73 12.68 2.15m2.41-1.68v20.88c0 5.65-3.7 10.78-9.44 13.07l-5.65 2.86-5.64-2.86C4.1 38.55.4 33.43.4 27.77V6.9a41 41 0 0 1 30.17 0m-1.2 20.87V7.73a39 39 0 0 0-13.89-2.5c-4.8 0-9.46.84-13.87 2.5v20.04c0 5.15 3.4 9.84 8.68 11.96l.05.02 5.14 2.6 5.15-2.6.04-.02c5.28-2.1 8.7-6.8 8.7-11.96m0 0"/></g><g clip-path="url(#f)"><g clip-path="url(#g)" transform="translate(5 9)"><g clip-path="url(#h)"><path fill="#fff" d="M11.26 1.72s.33.55 1.62 0c0 0 1.01.06.5.7 0 0 .65-.26 1.28.19 0 0 .63-.02.79.14 0 0 .16.79-.43.69 0 0 .57 1.3-.54.89 0 0-.12.53-.55.5 0 0 .06-.83-.59-.62 0 0-.89 1.13-.14 1.11s.65-.04.59-.28c0 0 .44.32.2.6 0 0 .55 1.04-.54 1.04 0 0 .36-.61-.29-.72s-1.52.5-2.28-1.07c0 0 .48 2.4 2.3 1.28 0 0 .04.5-.2.65 0 0 .83.26 1.2.64.36.39.94-.24.44-.64 0 0 1.25.62.18 1.27 0 0 .66.36 1.38.12 0 0-.47.83-1.97.69 0 0 1 .28 1.24 1.62 0 0 .14.5.36.56 0 0-.36.08-.69-.32 0 0-.3-.6-.76-.65 0 0 .68.55.76 1.03 0 0 .25.53.77.47 0 0-.69.64-1.82-.73s-2.16-.7-2.16-.7 1.52-.17 2.47 1.41c.94 1.57 4.26.87 3.1-.02 0 0-.13-.75.45-.63 0 0-.16-.8.53-.89s.63.49.44.6c0 0 .15-.42-.24-.28-.38.15-.16.4-.1.47s.53.22.08.85c0 0 .53-.14.53-.75 0-.6.97-.38.77.24 0 0 .66-.68 1.09.23 0 0 .14.4-.26.62 0 0 .26-.66-.49-.58 0 0 .47.87-.65.76-1.11-.1-.16.75.45.17 0 0 .97.3.4.89 0 0 .91 1.05-.34 1.17 0 0 .7-.37.12-.69 0 0-.47.53-.77-.22 0 0-.54-.65-.14.44 0 0 .24.75-.5.51 0 0 .46 1.23-.96.57 0 0 .9.06.39-.6 0 0-.75.2-.39-.62.37-.8-2.18-.8-1.23.49 0 0-.48.28-.85-.49 0 0-.14 1.05.18 1.5 0 0-.83-.65-1.17-1.54s-1.8-.99-2.18-.4c0 0-.61-1.26-1.56-1.34 0 0 1.21.61 1.4 1.8 0 0 .62-.97 1.98-.12 0 0-.93.63-.9 1.07 0 0-1.39-.7-3.33.73 0 0-.16.75.18 1.2 0 0-1.31.42-1.25 2.1.06 1.67-.37 1.92-.9 1.98 0 0 .92-.7-.17-1.21 0 0 .3 1.07-.65 1.02 0 0 .56-.86-.8-.6-1.35.26-1.12 2.65.43 1.8 1.56-.85 1.48.16 1.32.28 0 0 1.23.13.48 1.11 0 0-.04-.76-.6-.66 0 0 .04.66-.49.52 0 0-.5-.52-.99-.02 0 0 1.9.47.95 1.14 0 0 .53.52.22.83-.3.3-.64.16-.64.16s.6-.39-.1-.67c0 0-.35.59-.7-.12 0 0 .37-.83-.78-.95 0 0 1.27 1.05.14 1.21 0 0-.02.75-.46.81-.45.06-.67-.22-.67-.22s.79.28.45-.49c0 0-1.02.35-.57-1.82 0 0-.69 1.62-1.06.65 0 0-.93.6-.9-.54 0 0 .18.46.72.07 0 0-.3-.76.43-.56s.79-.77.59-1.21c0 0-.63.36-1.08-.71 0 0 .33.36.91-.02 0 0-1.05-.3-.48-1.68 0 0 .34.75.56.87 0 0-.2-1.1.5-1.12 0 0-.48.9.3.86.76-.04 2.84-1.3.74-4.05S2.89 12.9 3.92 7.4s-3.03-5.05-1.98.18c1.05 5.24 2.24 6.8 2.24 7.81s-.34 2.65-.95 3.36c-.6.7-.28 1.4.1 1.63 0 0-1.4-.16-.62-3.1 0 0-1.01.52-.71 1.59 0 0-1.25-1.42.22-2.9 0 0-.97.31-1.2 1.16 0 0-.1-1.38.64-1.76.72-.39.68-.4.76-.67 0 0-.3.28-.6.3-.3.03-.5.23-.57.35 0 0-.06-.83.67-1.01 0 0 .56-.18.56-.59 0 0-.36.32-.64.32s-.49.02-.63.17c0 0-.02-.53.67-1.15.69-.63.3-2.4.3-2.4s-3.1-7.98 1.03-7.94c0 0 2.95.14 1.01 6.05 0 0-.24.99-.08 1.37 0 0 .16-.2.4-.28s.25-.63.25-.63.44.47-.18 1.5c-.63 1.03.28 1.37.28 1.37s.02-1.15 1-.6c0 0-.64-.16-.47.65 0 0 .56.34.28 1 0 0 .7-.38.89.33 0 0-.27-.35-.55-.04-.28.3.1 1.82 1.2 1.5s3.78-3.14 1.8-5.16c0 0 .92 1.68-.27 2.02 0 0 .47-.36-.08-.99s-.74-.6-.85-1.4c0 0 0 1.44-1.31.49 0 0 .58.12.52-.57s-.92-1.15-.92-2.34c0 0-.15.77-.98.22 0 0 .9-.22.4-1.25-.48-1.03.98-2.53 1.59-2.8 0 0-.94.23-1.14-.52 0 0 .67.59 1.23-.54 0 0 .45-.67 1.63-.25 0 0-.9-.26-.73-.9 0 0 .3.64 1.05.1.75-.55 1.8-.57 2.36-.17.57.4.63-.34.19-.43 0 0 1.25.19.76.98-.48.79-1.23.26-1.23.26"/></g><g clip-path="url(#i)"><path fill="#fff" d="M14.88 9.1s.68.34 1.01 1.82c0 0 1.06.27 1.83-1.34 0 0 .15-.47.9-.34.73.14.99.47 1.52-.03 0 0-.8.26-1.06-.51 0 0 .78.32 1.22-.12 0 0-1.37-.08-1.05-1.48.31-1.4.75-.8.86-.6s.8.06.55-.5c0 0 .7-.23.43.4 0 0 .81-.26-.15-.96 0 0 .09-.66-.35-.63s-.41.54-.79.53c0 0-.36-.58.18-.76.55-.18.44-.7.07-.8 0 0 .2-.59.66-.18 0 0-.24-.68-.82-.45 0 0-.31.14-.37.39 0 0-.74-.17-.64.42.1.6.46.94-.13 1s-.32-.71-.29-1.04-.54-.49-.71-.33c-.16.14-.37-.74.23-.6 0 0-.86-.36-.92.41 0 0-.06.33.3.55 0 0-.56.16-.24.6.31.44.66.1.6 1.06 0 0-.52-.6-.83-.14 0 0-.59-.38-.18-.65 0 0-.96-.01-.18 1.12 0 0-.32.48.57.59.9.1 1.42 1.97-.8 1.85 0 0-.28.79-1.42.71"/></g><path fill="#fff" d="M10.49 15.57s-.27.84.44 1.26c0 0-1.22.25-1.48 1.58 0 0 2.12-.8 3.3.14s.32 2.15-.25 1.24c0 0 .2 1.08 1.08.42 0 0 .16 1.24-1.04 1.06 0 0-.54.36.06.62 0 0-.2.51-.57.32 0 0 .4.72.9.06 0 0 .59.7 1.07-.7 0 0 .27.34-.14.77 0 0-.15.52.5.59 0 0 .17.93-.6.6 0 0 .93.99 1.22-.46 0 0 .85-.09.36-1.03 0 0 .53.28.4.87-.13.6.71.53.81.18 0 0 .68.35.21.67 0 0 .83-.05.54-.86 0 0-.06-.3-.4-.2 0 0 .53-.63-.6-.93 0 0 .4-.24.97.3 0 0 .6.17.53-.5 0 0 .54.09.4.66 0 0 .9-1.08-.5-1.4 0 0-.16-.87-.77-.65-.6.22-1.25 1.33-2.13-.72 0 0 .66.7 1.07-.12 0 0-1.2.28-1.12-1.74 0 0 .36 0 .57.51 0 0 .2-1-.91-1.47-1.1-.47-2.73.72-3.92-1.07"/></g></g><g clip-path="url(#j)"><g fill="#737373" clip-path="url(#k)" transform="translate(29 26)"><path d="M6.49 5.55h4.66v.3h-.83v10.09h.83v.3H6.49v-.3h.84V5.84H6.5Zm12.54 6.58q0-1.56-.15-2.11t-.6-.55-.8.56a3 3 0 0 0-.34 1.5v2.85q0 .66.27 1.1.27.46.77.46t.67-.67.18-2.35Zm-1.89-7.35v5.35a2 2 0 0 1 1.99-1.31q2.85 0 2.86 3.8 0 1.95-.8 2.87-.78.9-2.34.9-.8 0-1.22-.23a1.3 1.3 0 0 1-.58-.83l-.1.9h-3.48v-.27h.85V5.06h-.85v-.28Zm11.1 11.62q-1.96 0-2.95-1.02a4 4 0 0 1-.98-2.83q0-1.8 1.09-2.77a4 4 0 0 1 2.83-.96q3.46 0 3.33 3.48h-4.32v.6q0 1.5.38 2.26t1.34.75q1.77 0 2.31-1.9l.29.06q-.3 1.1-1.07 1.71-.75.61-2.25.61m.6-4.41v-.74q0-1.25-.16-1.68-.15-.46-.58-.46t-.64.49q-.2.46-.2 1.65V12Zm-1.75-4.1.97-2.92.71-.15q.48-.12.72.12.25.22.25.6 0 .37-.43.76l-2.05 1.69ZM38.98 9.4q-.57 0-1 .73-.42.73-.42 1.75v4.08h1.1v.28h-4.77v-.28h.84v-6.7h-.84v-.29h3.67v1.47q.2-.78.76-1.2t1.28-.42 1.18.4.45 1.16q0 .73-.34 1.14-.33.39-1.04.39-.7 0-1.01-.45-.33-.47-.1-1.29h.57q.38-.77-.33-.78m6.48-1.47q-.8 0-1.14-.4a1.6 1.6 0 0 1-.35-1.03q0-.6.38-1 .37-.4 1.12-.4.77 0 1.16.35.4.37.4 1.03t-.39 1.06q-.37.4-1.18.4m-2.3 1.05h3.73v6.99h.86v.28h-4.53v-.28h.85v-6.7h-.91Zm10.95.12q-.67 0-.97.73-.28.75-.28 2.42v.8q0 1.51.33 2.17.34.66 1.23.66.9 0 1.44-.61a3 3 0 0 0 .7-1.4l.27.04q-.28 1.3-1.06 1.89-.8.6-2.2.6-1.76 0-2.71-.96-.94-.95-.94-2.8t1.06-2.82q1.08-1 3.02-1 1.34 0 2.06.53t.72 1.32-.34 1.16-.96.36q-.6 0-.96-.31-.37-.33-.36-.96 0-.27.07-.54h.5q.11-.31.11-.55 0-.73-.73-.73m8.54 3.54h.46v-1.17q0-1.45-.17-1.94-.16-.5-.61-.5a1 1 0 0 0-.5.14.5.5 0 0 0-.22.41q0 .26.1.5h.37q.12.33.12.78t-.39.77a1.4 1.4 0 0 1-.95.33q-1.32 0-1.32-1.27 0-1.87 3.2-1.87 1.8 0 2.5.62.7.6.7 2.27v3.09q0 .8.45.8.52 0 .6-1.58l.23.01q-.07 1.35-.5 1.86-.44.5-1.46.5-1.83 0-2.1-1.14-.2.6-.6.88-.4.26-1.16.26-2.25 0-2.25-1.84 0-1.1.86-1.5a6.5 6.5 0 0 1 2.64-.4m-.6 1.9q0 .77.07 1.01.1.23.33.23t.44-.39.22-1.07V12.9H63q-.96 0-.96 1.4Zm0 0"/></g></g><g clip-path="url(#l)"><g clip-path="url(#m)" transform="translate(34 1)"><g clip-path="url(#n)"><path fill="#737373" d="M.8 3.1H3v.13h-.39v4.8h.4v.14H.8v-.14h.4v-4.8H.8Zm0 0"/></g><path fill="#737373" d="M4.12 4.72h1.74v.67q.12-.34.36-.55.23-.2.73-.2 1.11 0 1.11 1.22v2.19h.4v.12H6.43v-.12h.3V5.69q0-.44-.06-.57T6.46 5q-.24 0-.43.31-.17.3-.17.74v2h.31v.12H4.12v-.12h.4v-3.2h-.4Zm5.45 3.53v-1.3h.1q.17.63.5.88t.8.25q.74 0 .74-.47a.3.3 0 0 0-.19-.3q-.27-.16-.71-.25-.5-.12-.83-.34-.41-.27-.4-.83-.01-.56.34-.9.35-.35.93-.35.36 0 .74.17.14.07.2.06.08 0 .13-.04l.12-.19h.08v1.11h-.08q-.38-.95-1.16-.95-.35 0-.51.12-.15.14-.16.3 0 .1.05.17l.08.1.1.06.24.09.14.03q.49.13.7.22.22.1.43.22.38.28.39.89 0 .6-.36.94-.37.3-1 .31-.45 0-.86-.22-.1-.06-.14-.06-.16 0-.31.28Zm4.13-1.11v-2.3h-.41v-.12h.4v-.94l1.35-.33v1.27h.93v.12h-.93V7.3q0 .35.06.5.08.15.3.15.2 0 .37-.22.17-.21.22-.59l.12.02q-.06.5-.32.8t-.86.29-.93-.23q-.3-.25-.3-.88m4.38-2.92q-.37 0-.55-.19a1 1 0 0 1-.15-.48q0-.3.17-.49t.55-.19.56.18.19.48q0 .32-.2.5-.18.2-.57.19m-1.08.5h1.77v3.33h.4v.12h-2.14v-.12h.4v-3.2H17Zm3.53 2.42v-2.3h-.4v-.12h.4v-.94l1.35-.33v1.27h.94v.12h-.94V7.3q0 .35.06.5.07.15.3.15.21 0 .37-.22.18-.21.22-.59l.13.02q-.08.5-.33.8t-.86.29-.92-.23q-.32-.25-.32-.88m7.54 1.03h-1.65l-.08-.53a1 1 0 0 1-.34.45q-.23.16-.68.16-1.12 0-1.12-1.22V4.84h-.4v-.12h1.74V7.2q0 .45.06.58.06.14.25.14.2 0 .33-.22.14-.22.14-.64V4.84H26v-.12h1.68v3.33h.4Zm1.36-1.03v-2.3h-.41v-.12h.4v-.94l1.35-.33v1.27h.94v.12h-.94V7.3q0 .35.06.5.07.15.3.15t.37-.22q.19-.21.22-.59l.13.02q-.07.5-.33.8-.25.3-.86.29-.6 0-.92-.23-.31-.25-.31-.88m5.68-.39v-.63q0-.7-.08-1.01-.08-.33-.36-.33-.16 0-.26.1-.1.08-.13.3-.08.32-.08.98v.57q0 .79.05.96.05.15.11.25.08.17.31.17.28 0 .36-.33.08-.21.08-1.03m-.45 1.5q-.9 0-1.38-.47t-.47-1.33q0-.87.5-1.34t1.4-.47 1.34.44.45 1.31q0 1.86-1.84 1.86m6.5-1.58a4 4 0 0 0 .08 1.02q.08.25.28.25.22 0 .38-.19.15-.19.15-.56V5.6q0-.3-.12-.53a.4.4 0 0 0-.36-.22q-.24 0-.33.33-.08.31-.08 1.1Zm.99 1.5-.08-.5q-.25.58-1 .58-.63 0-.97-.45t-.34-1.35q0-1.8 1.44-1.81.63 0 .84.36V2.86h-.44v-.13h1.81v5.32h.35v.12Zm4.55.08q-.93 0-1.4-.48a2 2 0 0 1-.47-1.35q0-.85.52-1.31.53-.47 1.34-.47 1.65 0 1.58 1.66h-2.03v.28q0 .72.17 1.08t.62.36q.85 0 1.11-.9l.13.02q-.13.54-.49.83t-1.07.28m-.46-2.1H47V5.8q0-.58-.08-.8-.06-.21-.27-.22-.2 0-.3.24t-.1.78Zm0 0"/><g clip-path="url(#o)"><path fill="#737373" d="M3.52 13.01q-1.13 0-1.13 2.17v.58q0 1.05.3 1.61.3.58.88.58.8 0 1.46-1.55h.13l-.05 1.63h-.08l-.09-.13q-.04-.03-.1-.03-.07 0-.52.13-.45.1-.93.1-1.18 0-1.84-.63-.64-.64-.64-1.93 0-1.27.67-1.96.69-.7 1.83-.7.44 0 .86.1.44.11.5.11.08 0 .1-.03.05-.03.09-.1h.09l.05 1.57h-.13a5 5 0 0 0-.67-1.13q-.35-.38-.78-.39m0 0"/></g><path fill="#737373" d="M8.27 16.33h.2v-.57q0-.68-.08-.92-.06-.23-.28-.23-.15 0-.25.07t-.1.2.05.23H8q.06.16.06.37t-.19.36a.7.7 0 0 1-.45.16q-.63 0-.63-.6 0-.9 1.52-.9.87 0 1.2.3t.33 1.07v1.47q0 .4.2.4.25 0 .3-.76h.11q-.03.64-.25.9-.21.23-.69.23-.85 0-1-.55a1 1 0 0 1-.28.42 1 1 0 0 1-.55.13q-1.07 0-1.07-.9 0-.5.4-.68.42-.2 1.27-.2m-.3.89q0 .37.05.48.04.1.15.11t.2-.19q.1-.18.1-.5v-.69h-.05q-.45 0-.45.68Zm5.94-1.14q0-.76-.07-1-.07-.27-.29-.27-.2 0-.37.28a1.3 1.3 0 0 0-.17.72v1.33q0 .3.12.53.12.22.36.22.25 0 .33-.31.1-.33.1-1.13Zm-.9-1.5v.57a1 1 0 0 1 1-.65q.6 0 .95.45.36.45.36 1.38 0 .9-.38 1.34-.37.45-1.12.44-.34 0-.53-.08a1 1 0 0 1-.28-.28v1.87h.93v.13h-2.67v-.13h.4V14.7h-.38v-.12Zm5.1 1.75h.2v-.57q0-.68-.07-.92t-.28-.23q-.15 0-.25.07t-.1.2.05.23h.17q.06.16.06.37t-.18.36a.7.7 0 0 1-.46.16q-.63 0-.62-.6 0-.9 1.51-.9.88 0 1.2.3.33.3.33 1.07v1.47q0 .4.2.4.25 0 .3-.76h.11q-.03.64-.25.9-.2.23-.68.23-.87 0-1-.55a1 1 0 0 1-.29.42 1 1 0 0 1-.54.13q-1.08 0-1.08-.9 0-.5.4-.68.42-.2 1.27-.2m-.3.89q0 .37.05.48.04.1.16.11.1 0 .2-.19.1-.18.1-.5v-.69h-.05q-.45 0-.46.68Zm5.42-2.58q-.33 0-.47.34-.12.35-.12 1.16v.37q0 .72.15 1.03.16.32.58.32.43 0 .69-.28.24-.3.33-.68l.12.02q-.15.63-.5.9-.37.3-1.05.29-.84 0-1.3-.46-.43-.45-.43-1.32t.5-1.35q.51-.48 1.44-.48.63 0 .98.26t.35.63-.18.54q-.15.18-.45.18a.7.7 0 0 1-.45-.14q-.18-.15-.17-.46 0-.14.03-.26h.25q.04-.14.04-.27 0-.34-.34-.34m3.36-.56q-.37 0-.55-.2a1 1 0 0 1-.15-.48q0-.3.17-.48.18-.2.55-.19.37 0 .56.17t.19.49q0 .3-.2.5-.18.18-.57.19m-1.08.5h1.77v3.32h.4v.13h-2.14v-.13h.4v-3.2h-.43ZM29.06 17v-2.3h-.41v-.12h.4v-.94l1.35-.33v1.27h.94v.12h-.94v2.45q0 .35.06.5.08.16.3.16t.37-.22q.18-.21.22-.6l.13.02q-.08.5-.33.8t-.86.3-.92-.24-.31-.87m5.07-.67h.2v-.57q0-.68-.07-.92t-.29-.23q-.14 0-.25.07-.09.07-.09.2 0 .1.05.23h.17q.06.16.06.37t-.19.36a.7.7 0 0 1-.45.16q-.62 0-.62-.6 0-.9 1.51-.9.88 0 1.2.3.33.3.33 1.07v1.47q0 .4.2.4.26 0 .3-.76h.11q-.03.64-.25.9-.2.23-.69.23-.85 0-1-.55a1 1 0 0 1-.28.42 1 1 0 0 1-.54.13q-1.08 0-1.08-.9 0-.5.4-.68.43-.2 1.27-.2m-.3.89q0 .37.05.48.04.1.16.11.1 0 .2-.19.1-.18.1-.5v-.69h-.05q-.45 0-.46.68Zm5.42-2.58q-.33 0-.47.34t-.12 1.16v.37q0 .72.15 1.03.16.32.58.32.44 0 .69-.28.24-.3.33-.68l.12.02q-.14.63-.5.9-.37.3-1.05.29-.84 0-1.3-.46-.43-.45-.43-1.32t.5-1.35 1.44-.48q.63 0 .98.26t.34.63-.17.54q-.15.18-.45.18a.7.7 0 0 1-.45-.14q-.18-.15-.18-.46 0-.14.04-.26h.25q.04-.14.04-.27 0-.34-.34-.34m3.35-.56q-.36 0-.54-.2a1 1 0 0 1-.15-.48q0-.3.17-.48.18-.2.54-.19.37 0 .57.17.18.18.18.49 0 .3-.18.5-.2.18-.58.19m-1.07.5h1.77v3.32h.4v.13h-2.14v-.13h.4v-3.2h-.43Zm5.51 2.02v-.62q0-.7-.08-1.01-.08-.33-.36-.33-.16 0-.26.1-.1.07-.13.29-.08.33-.08.98v.58q0 .78.05.95t.1.25q.09.18.32.18.28 0 .36-.33.08-.22.08-1.03m-.45 1.5q-.91 0-1.38-.46t-.47-1.33.5-1.34 1.4-.47 1.34.43q.45.45.45 1.32 0 1.86-1.84 1.86m-.49-4.04.45-1.38.35-.07q.23-.04.34.06.13.1.13.28 0 .17-.22.36l-.97.8Zm3.39.5h1.73v.67q.13-.34.36-.55.23-.2.74-.2 1.1 0 1.1 1.22v2.18h.41v.13H51.8v-.13h.3v-2.36q0-.42-.07-.56-.05-.12-.2-.12-.24 0-.43.3-.17.3-.17.74v2h.32v.13H49.5v-.13h.39v-3.2h-.4Zm0 0"/><g clip-path="url(#p)"><path fill="#737373" d="M.64 24.56v-.13h2.11v.13h-.39l.78 2.42.85-2.42H3.5v-.13h1.03v.13h-.37l-1.34 3.92q-.26.66-.55.94t-.74.28q-.42 0-.67-.2a.6.6 0 0 1-.23-.5q0-.3.15-.46.16-.15.43-.15.6 0 .6.5 0 .1-.04.25h-.25q-.07.16-.03.28.05.1.2.1.3 0 .53-.3.23-.29.44-.88l.17-.45H2.2L.94 24.56Zm0 0"/></g><path fill="#737373" d="M10.37 22.87q-1.13 0-1.13 2.17v.58q0 1.04.3 1.6.3.6.88.59.8 0 1.46-1.55h.13l-.05 1.63h-.08l-.09-.13q-.03-.03-.1-.03t-.52.12q-.45.1-.93.11-1.18.01-1.84-.64-.64-.63-.64-1.92 0-1.27.67-1.97.69-.7 1.83-.7.44 0 .86.1.44.12.5.12.07 0 .1-.03.05-.03.09-.11h.09l.05 1.58h-.13a5 5 0 0 0-.67-1.13q-.35-.39-.78-.39m4.85 5.09q-.95 0-1.4-.48a2 2 0 0 1-.48-1.34q0-.86.52-1.32.53-.46 1.34-.47 1.65 0 1.58 1.66h-2.03v.28q0 .72.17 1.08.19.36.63.36.84 0 1.1-.9l.13.02q-.13.54-.48.83-.37.28-1.08.28m-.47-2.09h.75v-.36q0-.57-.08-.8-.06-.21-.27-.21-.2 0-.3.23t-.1.78Zm5.57-1.23q-.3 0-.49.36-.2.35-.2.8v1.96h.51v.13H17.9v-.13h.4v-3.2h-.4v-.13h1.74v.7a1 1 0 0 1 .36-.57q.29-.2.6-.2.35 0 .57.2.21.18.22.54 0 .34-.17.54-.16.18-.49.18t-.48-.22-.03-.59h.25q.18-.37-.14-.37m2.35 2.21v-2.3h-.4v-.12h.4v-.93l1.35-.33v1.26h.94v.13h-.94V27q0 .35.06.5.07.16.3.16.21 0 .37-.22.18-.23.22-.6l.13.02q-.08.5-.33.8-.26.3-.86.3t-.92-.24-.32-.88m4.39-2.91q-.37 0-.55-.18a1 1 0 0 1-.15-.49q0-.3.17-.48.18-.2.55-.2t.56.18.19.49-.19.5q-.2.18-.58.18m-1.08.5h1.77v3.33h.4v.13h-2.14v-.13h.4v-3.2h-.43Zm5.36-2.03q-.27 0-.35.22-.1.21-.1.66v1.15h.97v.13h-.97v3.2h.9v.13h-2.63v-.13h.39v-3.2h-.42v-.13h.42v-.03q0-1.05.39-1.58.4-.54 1.34-.54.6 0 .88.25.28.23.28.56 0 .32-.17.48a.7.7 0 0 1-.46.16.6.6 0 0 1-.42-.14.5.5 0 0 1-.14-.33q0-.18.05-.36h.28q.14-.5-.24-.5m2.48 1.53q-.37 0-.54-.18a1 1 0 0 1-.16-.49q0-.3.17-.48.19-.2.55-.2.38 0 .56.18.2.18.19.49 0 .3-.19.5-.19.18-.58.18m-1.07.5h1.76v3.33h.4v.13H32.8v-.13h.39v-3.2h-.42Zm5.2.07q-.32 0-.47.34-.12.35-.12 1.16v.37q0 .72.15 1.03.16.31.58.31.44 0 .69-.28.24-.3.33-.67l.12.02q-.15.62-.5.9-.38.28-1.04.28-.85 0-1.3-.45-.44-.45-.44-1.33 0-.87.5-1.34.52-.48 1.44-.49.63 0 .98.27.35.26.35.63 0 .38-.17.54-.16.18-.46.17a.7.7 0 0 1-.45-.14q-.17-.15-.17-.45 0-.14.03-.27h.25q.05-.14.05-.26 0-.34-.35-.34M42 26.18h.21v-.56q0-.7-.08-.92-.06-.24-.28-.24-.15 0-.25.08-.1.06-.1.19 0 .1.06.23h.17q.06.15.06.38 0 .21-.19.36a.7.7 0 0 1-.45.15q-.63 0-.63-.59 0-.9 1.52-.9.87 0 1.2.3t.33 1.07v1.47q0 .39.2.39.26 0 .3-.75h.11q-.03.65-.25.89-.21.23-.69.23-.85 0-1-.54a1 1 0 0 1-.28.42 1 1 0 0 1-.54.12q-1.08 0-1.08-.89 0-.5.4-.68.42-.2 1.27-.2m-.29.9q0 .36.05.48.04.1.16.1.1 0 .2-.18.1-.19.1-.5v-.69h-.05q-.46 0-.46.67Zm5.41-2.59q-.33 0-.47.34T46.53 26v.37q0 .72.16 1.03t.58.31.69-.28q.24-.3.32-.67l.13.02q-.15.62-.5.9-.38.28-1.05.28-.85 0-1.3-.45-.43-.45-.43-1.33 0-.87.5-1.34.51-.48 1.44-.49.63 0 .98.27.34.26.34.63 0 .38-.17.54-.16.18-.45.17a.7.7 0 0 1-.45-.14q-.18-.15-.18-.45 0-.14.03-.27h.25q.05-.14.05-.26 0-.34-.34-.34m3.36-.57q-.38 0-.55-.18a1 1 0 0 1-.16-.49q0-.3.18-.48.18-.2.54-.2.38 0 .57.18t.18.49-.18.5q-.2.18-.58.18m-1.08.5h1.77v3.33h.4v.13h-2.14v-.13h.4v-3.2h-.43Zm5.52 2.03v-.62q0-.7-.08-1.02t-.36-.32q-.16 0-.27.09-.09.07-.12.3-.09.32-.08.98v.58q0 .78.05.95.04.16.1.25.08.18.32.17.28 0 .36-.32.08-.23.08-1.04m-.46 1.5q-.9 0-1.37-.46-.47-.48-.47-1.33 0-.88.5-1.35.5-.46 1.4-.47t1.33.44.46 1.31q0 1.87-1.85 1.86M54 23.92l.45-1.38.35-.08q.23-.04.34.07.13.09.13.28 0 .17-.22.36l-.97.8Zm3.38.51h1.73v.67q.12-.33.36-.54.23-.2.74-.2 1.1 0 1.1 1.21v2.2h.41v.12h-2.05v-.13h.3V25.4q0-.44-.06-.56t-.2-.13q-.24 0-.43.32-.17.3-.17.73v2h.31v.13h-2.04v-.13h.39v-3.2h-.4Zm0 0"/></g></g><path fill="none" stroke="#737373" stroke-width=".77" d="M32.69 46.1V2.18"/></g></g></g></g></svg>